<?xml version="1.0" encoding="UTF-8"?>
<svg xmlns="http://www.w3.org/2000/svg" xmlns:xlink="http://www.w3.org/1999/xlink" width="800px" height="800px" viewBox="0 0 400 400" version="1.1">
<g id="surface1">
<path style=" stroke:none;fill-rule:nonzero;fill:rgb(0%,0%,0%);fill-opacity:1;" d="M 62.226562 136.953125 C 57.664062 136.953125 53.960938 140.648438 53.960938 145.210938 L 53.960938 158.296875 C 53.960938 162.859375 57.664062 166.554688 62.226562 166.554688 C 66.789062 166.554688 70.484375 162.859375 70.484375 158.296875 L 70.484375 145.210938 C 70.484375 140.648438 66.789062 136.953125 62.226562 136.953125 Z M 62.226562 136.953125 "/>
<path style=" stroke:none;fill-rule:nonzero;fill:rgb(0%,0%,0%);fill-opacity:1;" d="M 150.382812 166.554688 C 154.945312 166.554688 158.648438 162.859375 158.648438 158.296875 L 158.648438 145.210938 C 158.648438 140.648438 154.945312 136.953125 150.382812 136.953125 C 145.820312 136.953125 142.125 140.648438 142.125 145.210938 L 142.125 158.296875 C 142.125 162.859375 145.820312 166.554688 150.382812 166.554688 Z M 150.382812 166.554688 "/>
<path style=" stroke:none;fill-rule:nonzero;fill:rgb(0%,0%,0%);fill-opacity:1;" d="M 106.304688 207.226562 C 116.671875 207.226562 127.03125 203.28125 134.921875 195.390625 C 138.148438 192.164062 138.148438 186.929688 134.921875 183.703125 C 131.703125 180.476562 126.46875 180.476562 123.242188 183.703125 C 113.90625 193.046875 98.703125 193.046875 89.367188 183.703125 C 86.140625 180.476562 80.90625 180.476562 77.679688 183.703125 C 74.460938 186.929688 74.460938 192.164062 77.679688 195.390625 C 85.578125 203.28125 95.9375 207.226562 106.304688 207.226562 Z M 106.304688 207.226562 "/>
<path style=" stroke:none;fill-rule:nonzero;fill:rgb(0%,0%,0%);fill-opacity:1;" d="M 247.445312 136.085938 C 242.882812 136.085938 239.1875 139.789062 239.1875 144.351562 L 239.1875 157.429688 C 239.1875 161.992188 242.882812 165.695312 247.445312 165.695312 C 252.007812 165.695312 255.703125 161.992188 255.703125 157.429688 L 255.703125 144.351562 C 255.703125 139.789062 252.007812 136.085938 247.445312 136.085938 Z M 247.445312 136.085938 "/>
<path style=" stroke:none;fill-rule:nonzero;fill:rgb(0%,0%,0%);fill-opacity:1;" d="M 343.867188 157.429688 L 343.867188 144.351562 C 343.867188 139.789062 340.164062 136.085938 335.609375 136.085938 C 331.046875 136.085938 327.34375 139.789062 327.34375 144.351562 L 327.34375 157.429688 C 327.34375 161.992188 331.046875 165.695312 335.609375 165.695312 C 340.164062 165.695312 343.867188 161.992188 343.867188 157.429688 Z M 343.867188 157.429688 "/>
<path style=" stroke:none;fill-rule:nonzero;fill:rgb(0%,0%,0%);fill-opacity:1;" d="M 308.460938 182.84375 C 299.125 192.179688 283.929688 192.179688 274.585938 182.84375 C 271.359375 179.617188 266.132812 179.617188 262.90625 182.84375 C 259.679688 186.070312 259.679688 191.296875 262.90625 194.523438 C 270.796875 202.414062 281.15625 206.359375 291.523438 206.359375 C 301.890625 206.359375 312.257812 202.414062 320.148438 194.523438 C 323.367188 191.296875 323.375 186.070312 320.148438 182.84375 C 316.921875 179.617188 311.6875 179.617188 308.460938 182.84375 Z M 308.460938 182.84375 "/>
<path style=" stroke:none;fill-rule:nonzero;fill:rgb(0%,0%,0%);fill-opacity:1;" d="M 238.476562 171.398438 L 229.78125 171.398438 C 225.21875 171.398438 221.515625 175.101562 221.515625 179.664062 C 221.515625 184.226562 225.21875 187.921875 229.78125 187.921875 L 238.476562 187.921875 C 243.039062 187.921875 246.742188 184.226562 246.742188 179.664062 C 246.742188 175.101562 243.039062 171.398438 238.476562 171.398438 Z M 238.476562 171.398438 "/>
<path style=" stroke:none;fill-rule:nonzero;fill:rgb(0%,0%,0%);fill-opacity:1;" d="M 361.5625 47.351562 C 336.773438 22.5625 303.820312 8.914062 268.765625 8.914062 C 244.242188 8.914062 220.585938 15.601562 200 28.3125 C 179.414062 15.601562 155.757812 8.914062 131.242188 8.914062 C 96.179688 8.914062 63.226562 22.5625 38.4375 47.351562 C 13.648438 72.140625 0 105.09375 0 140.148438 C 0 175.203125 13.648438 208.164062 38.4375 232.953125 L 194.15625 388.671875 C 195.710938 390.21875 197.8125 391.085938 200 391.085938 C 202.1875 391.085938 204.289062 390.21875 205.84375 388.671875 L 361.5625 232.953125 C 386.351562 208.164062 400 175.203125 400 140.148438 C 400 105.09375 386.351562 72.140625 361.5625 47.351562 Z M 349.875 221.265625 L 200 371.148438 L 50.125 221.265625 C 28.453125 199.601562 16.523438 170.789062 16.523438 140.148438 C 16.523438 109.507812 28.453125 80.703125 50.125 59.03125 C 71.789062 37.367188 100.59375 25.429688 131.234375 25.429688 C 154.296875 25.429688 176.476562 32.195312 195.367188 44.992188 C 198.164062 46.882812 201.835938 46.882812 204.632812 44.992188 C 223.523438 32.195312 245.703125 25.429688 268.757812 25.429688 C 299.40625 25.429688 328.210938 37.367188 349.875 59.03125 C 371.546875 80.703125 383.476562 109.507812 383.476562 140.148438 C 383.476562 170.789062 371.546875 199.601562 349.875 221.265625 Z M 349.875 221.265625 "/>
<path style=" stroke:none;fill-rule:nonzero;fill:rgb(0%,0%,0%);fill-opacity:1;" d="M 343.367188 65.546875 C 304.125 26.304688 241.40625 24.492188 200 60.125 C 158.59375 24.5 95.882812 26.304688 56.632812 65.546875 C 36.710938 85.476562 25.734375 111.96875 25.734375 140.148438 C 25.734375 168.328125 36.710938 194.828125 56.632812 214.75 L 194.15625 352.273438 C 195.710938 353.828125 197.8125 354.695312 200 354.695312 C 202.1875 354.695312 204.289062 353.828125 205.84375 352.273438 L 343.367188 214.75 C 363.289062 194.828125 374.265625 168.328125 374.265625 140.148438 C 374.265625 111.96875 363.289062 85.476562 343.367188 65.546875 Z M 205.84375 77.226562 C 240.539062 42.53125 296.984375 42.53125 331.679688 77.226562 C 336.335938 81.882812 340.398438 86.953125 343.859375 92.367188 C 326.820312 85.734375 310.8125 76.304688 296.835938 64.570312 C 293.765625 62 289.289062 61.992188 286.21875 64.570312 C 271.21875 77.15625 254.296875 86.929688 235.921875 93.617188 C 221.460938 98.882812 206.367188 102.125 191.046875 103.25 C 187.882812 103.484375 184.664062 103.632812 181.460938 103.679688 C 181.820312 92.5 183.835938 81.617188 187.476562 71.1875 C 189.78125 73.070312 192.007812 75.085938 194.15625 77.234375 C 197.382812 80.453125 202.617188 80.453125 205.84375 77.226562 Z M 181.398438 120.203125 C 182.0625 120.195312 182.726562 120.179688 183.398438 120.164062 L 183.398438 141.96875 C 183.398438 155.039062 185.710938 167.820312 190.265625 179.976562 C 190.289062 180.046875 190.320312 180.117188 190.34375 180.1875 C 194.726562 191.773438 201 202.398438 208.882812 211.726562 L 190.578125 237.90625 C 188.65625 240.648438 185.984375 240.164062 184.921875 239.828125 C 183.859375 239.492188 181.390625 238.359375 181.390625 235.015625 L 181.390625 120.203125 Z M 173.335938 61.75 C 167.71875 76.265625 164.875 91.5625 164.875 107.34375 L 164.875 114.601562 C 152.039062 112.453125 139.46875 108.851562 127.40625 103.859375 C 112.226562 97.578125 98.046875 89.171875 85.25 78.882812 L 75.65625 70.664062 C 91.84375 57.695312 111.539062 51.210938 131.242188 51.210938 C 145.742188 51.210938 160.234375 54.726562 173.335938 61.75 Z M 56.328125 188.1875 C 59.375 186.96875 61.515625 184 61.515625 180.523438 C 61.515625 175.960938 57.820312 172.265625 53.257812 172.265625 L 48.257812 172.265625 C 36.757812 142.414062 41.90625 107.5625 63.71875 82.1875 L 74.59375 91.507812 C 74.65625 91.5625 74.726562 91.617188 74.789062 91.671875 C 88.835938 102.984375 104.414062 112.21875 121.09375 119.125 C 135.164062 124.945312 149.859375 129.039062 164.875 131.328125 L 164.875 172.265625 L 159.351562 172.265625 C 154.789062 172.265625 151.09375 175.960938 151.09375 180.523438 C 151.09375 185.085938 154.789062 188.789062 159.351562 188.789062 L 164.875 188.789062 L 164.875 205.484375 C 148.273438 218.695312 127.625 225.929688 106.3125 225.929688 C 100.734375 225.929688 95.164062 225.4375 89.71875 224.46875 L 68.320312 203.070312 C 63.710938 198.460938 59.71875 193.460938 56.328125 188.1875 Z M 200 334.75 L 107.679688 242.4375 C 128.023438 242.179688 147.796875 236.335938 164.875 225.679688 L 164.875 235.015625 C 164.875 244.625 170.796875 252.703125 179.960938 255.585938 C 182.1875 256.289062 184.4375 256.632812 186.640625 256.632812 C 193.5 256.632812 199.945312 253.335938 204.117188 247.367188 L 220.695312 223.664062 C 223.460938 226.054688 226.34375 228.328125 229.367188 230.460938 C 245.820312 242.03125 264.890625 248.664062 284.875 249.875 Z M 331.679688 203.070312 L 301.75 233 C 298.375 233.375 294.953125 233.570312 291.53125 233.570312 C 272.546875 233.570312 254.34375 227.820312 238.875 216.945312 C 223.820312 206.351562 212.421875 191.71875 205.898438 174.609375 C 205.84375 174.460938 205.789062 174.3125 205.734375 174.164062 C 201.875 163.875 199.921875 153.046875 199.921875 141.96875 L 199.921875 118.992188 C 214.117188 117.34375 228.101562 114.046875 241.578125 109.140625 C 259.625 102.570312 276.40625 93.289062 291.53125 81.515625 C 309.9375 95.8125 331.1875 106.625 353.5625 113.070312 C 356.3125 121.710938 357.742188 130.820312 357.742188 140.148438 C 357.742188 150.992188 355.8125 161.539062 352.125 171.398438 L 344.570312 171.398438 C 340.007812 171.398438 336.3125 175.09375 336.3125 179.65625 C 336.3125 183.992188 339.648438 187.539062 343.890625 187.882812 C 340.421875 193.3125 336.34375 198.40625 331.679688 203.070312 Z M 331.679688 203.070312 "/>
</g>
</svg>
